# xmcd
#
# Track frame offsets:
#	150
#	16192
#	34180
#	54302
#	70741
#	95260
#	115871
#	135330
#	154777
#	169320
#	199824
#	216943
#	232701
#	250460
#	275162
#	297970
#	316157
#
# Disc length: 4511 seconds
# Revision: 0
# Processed by: cddbd v1.5.2PL0 Copyright (c) Steve Scherf et al.
# Submitted via: dBpowerAMP V12.0
#
DISCID=ec119d11
DTITLE=Various Artist - Monkey Business
DYEAR=2005
DGENRE=Rap
TTITLE0=The Black Eyed Peas - Pump It
TTITLE1=The Black Eyed Peas - Don't Phunk with My Heart
TTITLE2=The Black Eyed Peas feat. Justin Timberlake - My Style
TTITLE3=The Black Eyed Peas - Don't Lie
TTITLE4=The Black Eyed Peas - My Humps
TTITLE5=The Black Eyed Peas feat. Q-Tip, Talib Kweli, Cee-Lo, and John Legend - Like That
TTITLE6=The Black Eyed Peas feat. Dante Santiago - Dum Diddly
TTITLE7=The Black Eyed Peas - Feel It
TTITLE8=The Black Eyed Peas - Gone Going
TTITLE9=The Black Eyed Peas feat. James Brown - They Don't Want Music
TTITLE10=The Black Eyed Peas - Disco Club
TTITLE11=The Black Eyed Peas - Bebot
TTITLE12=The Black Eyed Peas - Ba Bump
TTITLE13=The Black Eyed Peas - Audio Delite at Low Fidelity
TTITLE14=The Black Eyed Peas feat. Sting - Union
TTITLE15=The Black Eyed Peas - Do What You Want
TTITLE16=The Black Eyed Peas - If You Want Love
EXTD=
EXTT0=
EXTT1=
EXTT2=
EXTT3=
EXTT4=
EXTT5=
EXTT6=
EXTT7=
EXTT8=
EXTT9=
EXTT10=
EXTT11=
EXTT12=
EXTT13=
EXTT14=
EXTT15=
EXTT16=
PLAYORDER=
